With: Scout Taylor-Compton, Brittany Robertson and Nolan Gerard Funk

Tijdens een pyamafeestje speelt een groep tieners een uitdagend spel van true or dare. Als de spanning stijgt en de uitdagingen steeds extremer worden ontrafelen de meisjes de waarheid achter een gerucht uit het verleden over de zelfmoord van een student.

On the night of a sleepover, a group of teenage girls venture out in a competitive game of challenging dares. As the antics escalate, and the dares become more extreme, the girls unravel the truth behind a former student's rumored suicide.

------------------------ Dutch Friends ------------------------
---------------------------------------------------------------
- Bezoek ook eens mijn vrienden op:  http://www.Film-Test.nl --
----- voor mijn Nederlandse Sync. ondertitels ---- en meer ----
------- http://www.Film-Test.nl ---- voor Films en meer -------
---------------------------------------------------------------

General:

Complete name                    : Triple DogTriple Dog.avi
Format                           : AVI
Format/Info                      : Audio Video Interleave
File size                        : 1.12 GiB
Duration                         : 1h 30mn
Overall bit rate                 : 1 770 Kbps

Video:

Format                           : MPEG-4 Visual
Format profile                   : Simple@L3
Format settings, BVOP            : No
Format settings, QPel            : No
Format settings, GMC             : No warppoints
Format settings, Matrix          : Default (H.263)
Codec ID                         : XVID
Codec ID/Hint                    : XviD
Duration                         : 1h 30mn
Bit rate                         : 1 568 Kbps
Width                            : 704 pixels
Height                           : 396 pixels
Display aspect ratio             : 16:9
Frame rate                       : 25.000 fps
Color space                      : YUV
Chroma subsampling               : 4:2:0
Bit depth                        : 8 bits
Scan type                        : Progressive
Bits/(Pixel*Frame)               : 0.225
Stream size                      : 1 012 MiB (89%)
Writing library                  : XviD 1.1.2 (UTC 2006-11-01)

Audio:

Format                           : AC-3
Format/Info                      : Audio Coding 3
Mode extension                   : CM (complete main)
Codec ID                         : 2000
Duration                         : 1h 30mn
Bit rate mode                    : Constant
Bit rate                         : 192 Kbps
Channel(s)                       : 2 channels
Channel positions                : Front: L R
Sampling rate                    : 48.0 KHz
Bit depth                        : 16 bits
Stream size                      : 124 MiB (11%)
Alignment                        : Aligned on interleaves
Interleave, duration             : 32 ms (0.80 video frame)
